# xmcd
#
# Track frame offsets:
#	182
#	13395
#	25715
#	39392
#	49802
#	63605
#	80260
#	94085
#	107070
#	122912
#	137200
#	155237
#	166837
#	178370
#	194497
#	207765
#	226722
#	245967
#	258937
#	275380
#
# Disc length: 3842
#
# Revision: 1
# Processed by: cddbd v1.5.1PL0 Copyright (c) Steve Scherf et al.
# Submitted via: FreeRIP 2.53 
# Normalized: r0:TDELIM( - )
#
DISCID=210f0014
DTITLE=Country - Various - Country Legends
DYEAR=1995
DGENRE=Country
TTITLE0=Crystal Gayle - Talking in Your Sleep
TTITLE1=Glen Campbell - By the Time I get to Phoenix
TTITLE2=Dr. Hook - Better Love Next Time
TTITLE3=Jody Miller - Queen of the House
TTITLE4=Willie Nelson - Funny How Time Slips Away
TTITLE5=Olivia Newton John - If You Could Read My Mind
TTITLE6=Glen Campbell - Wichita Lineman
TTITLE7=Billie Jo Spears - I Love You Because
TTITLE8=Kenny Rogers - The Gambler
TTITLE9=Tenessee Ernie Ford - Give Me Your Word
TTITLE10=Dottie West - Hey Mr. Dream Maker
TTITLE11=Glen Campbell and Bobby Gentry - All I Have to do is Dream
TTITLE12=Crystal Gayle - Don't Make My Brown Eyes Blue
TTITLE13=Joe South - Games People Play
TTITLE14=Dr Hook - When You're In Love With a Beautiful Woman
TTITLE15=Kenny Rogers - She Believes In Me
TTITLE16=Bobbie Gentry - Ode To Billy Joe
TTITLE17=Willie Nelson - Crazy
TTITLE18=Olivia Newton John - I Honestly Love You
TTITLE19=Billie Jo Spears - 57 Chevrolet
EXTD=
EXTT0=
EXTT1=
EXTT2=
EXTT3=
EXTT4=
EXTT5=
EXTT6=
EXTT7=
EXTT8=
EXTT9=
EXTT10=
EXTT11=
EXTT12=
EXTT13=
EXTT14=
EXTT15=
EXTT16=
EXTT17=
EXTT18=
EXTT19=
PLAYORDER=
